<?xml version="1.0" encoding="UTF-8" standalone="no"?>
<!DOCTYPE svg PUBLIC "-//W3C//DTD SVG 1.1//EN" "http://www.w3.org/Graphics/SVG/1.1/DTD/svg11.dtd">
<svg width="100%" height="100%" viewBox="0 0 395 478" version="1.1" xmlns="http://www.w3.org/2000/svg" xmlns:xlink="http://www.w3.org/1999/xlink" xml:space="preserve" xmlns:serif="http://www.serif.com/" style="fill-rule:evenodd;clip-rule:evenodd;stroke-linejoin:round;stroke-miterlimit:2;">
    <g transform="matrix(1,0,0,1,-202.5,-61.0904)">
        <g transform="matrix(0.830268,0,0,0.830268,77.067,60.0938)">
            <g id="path1" transform="matrix(1,0,0,1,151.075,1.20028)">
                <path d="M36.25,223.75C28.92,223.75 25.25,217 25.25,203.5C25.25,195.17 28.42,182.42 34.75,165.25C40.08,151.25 44.67,141.33 48.5,135.5C50.17,132.83 51.25,131.42 51.75,131.25L51.75,131.5C51.75,132.17 51.25,133.67 50.25,136C38.25,162.67 32.25,182.17 32.25,194.5C32.25,199.67 33.25,203.58 35.25,206.25C36.58,208.08 37.92,209 39.25,209C42.58,209 46.08,205.42 49.75,198.25C50.25,197.08 50.67,196.5 51,196.5C51.17,196.5 51.33,196.83 51.5,197.5L51.25,198.5C50.58,205 48.79,210.83 45.88,216C42.96,221.17 39.75,223.75 36.25,223.75Z" style="fill:rgb(0,162,181);"/>
            </g>
            <g id="path2" transform="matrix(1,0,0,1,151.075,1.20028)">
                <path d="M179.75,303L179.75,302.5C179.75,301.83 180.58,300.08 182.25,297.25C190.92,282.75 195.25,273 195.25,268L195,266.5C194.17,262.83 192.33,261 189.5,261C186.83,261 184.33,262.17 182,264.5C181,265.5 180.33,266.08 180,266.25L179,266L179,262.5C179,252.83 182.58,247.25 189.75,245.75L192.5,245.5C197,245.5 199.92,248.67 201.25,255C201.58,256.67 201.75,258.33 201.75,260C201.75,264.67 200.67,269.92 198.5,275.75C195.33,284.08 190.58,291.67 184.25,298.5C181.92,301.33 180.42,302.83 179.75,303Z" style="fill:rgb(0,162,181);"/>
            </g>
            <g id="path3" transform="matrix(1,0,0,1,151.075,1.20028)">
                <path d="M220,73.75L219.75,73.75L219.5,73.25C219.5,72.75 220.17,70.67 221.5,67C227.17,51.67 230,40.92 230,34.75C230,33.25 229.83,32 229.5,31C228.17,27.67 226.17,26 223.5,26C222.67,26 221.67,26.25 220.5,26.75C217.33,28.08 214.92,30.42 213.25,33.75C212.92,33.58 212.5,33.5 212,33.5L211.25,29.75C210.92,27.75 210.75,25.83 210.75,24C210.75,16.67 213.75,11.75 219.75,9.25C221.25,8.58 222.75,8.25 224.25,8.25C228.58,8.25 231.92,11.25 234.25,17.25C235.58,20.75 236.25,24.83 236.25,29.5C236.25,32.83 235.92,36.42 235.25,40.25C233.42,50.25 229.67,59.58 224,68.25C221.83,71.75 220.5,73.58 220,73.75Z" style="fill:rgb(0,162,181);"/>
            </g>
            <g id="path4" transform="matrix(1,0,0,1,151.075,1.20028)">
                <path d="M107.5,135.25C106.83,135.25 106.25,134.25 105.75,132.25C105.08,129.08 101.92,123.29 96.25,114.88C90.58,106.46 86.92,102.25 85.25,102.25C84.08,102.25 83.42,102.67 83.25,103.5C83.08,104.33 82.25,104.92 80.75,105.25L80,105.25C78.33,105.25 76.08,104.42 73.25,102.75C69.75,100.75 68,99 68,97.5C68,96.5 68.71,94 70.13,90C71.54,86 72.63,83.92 73.38,83.75C74.13,83.58 75,83.5 76,83.5C80.67,83.5 85.33,85.83 90,90.5C95.83,96 100.75,103.83 104.75,114L105.75,116.25L106,115.75L106.25,113.75C106.08,111.25 106,108.33 106,105C106,99.33 106.25,92.33 106.75,84C108.75,73.33 112.25,68 117.25,68C119.25,68 121.5,69.08 124,71.25C126.5,73.42 127.92,75.33 128.25,77L128.5,79.25C128.5,84.42 127.58,87 125.75,87C125.25,87 124.08,86.25 122.25,84.75C120.42,83.25 118.75,82.5 117.25,82.5C113.08,82.5 111,90 111,105L111.5,118.75C111.5,128.92 110.17,134.42 107.5,135.25Z" style="fill:rgb(0,162,181);"/>
            </g>
            <path id="path0" d="M153.825,287.45C152.995,287.45 152.575,287.28 152.575,286.95C152.745,286.28 154.655,285.03 158.325,283.2L204.575,261.95C222.245,253.95 235.995,246.12 245.825,238.45C235.495,234.95 230.325,229.62 230.325,222.45L230.325,220.95C230.995,214.45 233.245,208.53 237.075,203.2C236.745,201.03 236.575,199.03 236.575,197.2C236.575,192.53 237.825,189.2 240.325,187.2C242.825,185.2 245.495,184.2 248.325,184.2C251.495,184.2 255.495,185.78 260.325,188.95C273.995,198.45 282.655,209.2 286.325,221.2C286.495,221.7 286.575,222.37 286.575,223.2C286.575,226.87 284.825,231.7 281.325,237.7C278.495,242.37 275.905,244.7 273.575,244.7L253.075,240.45C245.745,248.78 236.905,255.95 226.575,261.95C214.575,268.95 203.655,274.12 193.825,277.45C191.655,278.28 180.325,281.28 159.825,286.45C156.995,287.12 154.995,287.45 153.825,287.45ZM277.825,231.2C277.995,231.03 278.075,230.7 278.075,230.2C278.075,229.7 277.905,228.87 277.575,227.7C275.075,220.37 270.155,214.62 262.825,210.45C262.155,217.28 260.825,222.7 258.825,226.7C259.825,227.2 265.655,228.7 276.325,231.2L277.825,231.2ZM253.325,225.2C254.325,222.7 254.825,219.95 254.825,216.95C254.825,210.28 252.995,206.7 249.325,206.2L249.075,206.2C247.405,206.2 244.995,207.49 241.825,210.08C238.655,212.66 237.075,214.7 237.075,216.2C237.075,219.53 242.495,222.53 253.325,225.2Z" style="fill:rgb(0,162,181);"/>
            <g id="path7" transform="matrix(1,0,0,1,151.075,1.20028)">
                <path d="M176.75,555.25C176.08,555.08 175.75,554.25 175.75,552.75C175.75,550.42 174.33,545.67 171.5,538.5C168.67,531.33 166.67,527.75 165.5,527.75C164.67,527.75 164.13,528 163.88,528.5C163.63,529 163,529.25 162,529.25C160.67,529.25 158.96,528.33 156.88,526.5C154.79,524.67 153.75,523.17 153.75,522C153.75,521.5 154.63,519.79 156.38,516.88C158.13,513.96 159.25,512.5 159.75,512.5C163.92,512.5 167.67,515 171,520C174.33,525 176.67,531.5 178,539.5C178.17,540.33 178.25,540.83 178.25,541L178.5,541L179,539.5C179.67,534.67 181.33,527.5 184,518C186.83,511.33 189.92,508 193.25,508C195.08,508 196.79,509.04 198.38,511.13C199.96,513.21 200.75,514.92 200.75,516.25C200.75,517.25 200.42,518.5 199.75,520C199.25,522.17 198.5,523.25 197.5,523.25C197.17,523.25 196.38,522.46 195.13,520.88C193.88,519.29 192.58,518.5 191.25,518.5C188.08,518.5 185.33,525.5 183,539.5C181,550 178.92,555.25 176.75,555.25Z" style="fill:rgb(0,162,181);"/>
            </g>
            <g id="path8" transform="matrix(1,0,0,1,151.075,1.20028)">
                <path d="M242.25,547.75L242.25,547.5C242.25,547 243.5,545.33 246,542.5C258.67,528.83 265,519.75 265,515.25C264.83,510.92 262.75,508.75 258.75,508.75C256.58,508.75 254.71,509.25 253.13,510.25C251.54,511.25 250.58,511.83 250.25,512L249.5,511.5L249.75,509.5C251.58,499.17 256.42,494 264.25,494C270.42,494 273.5,497.83 273.5,505.5C273.5,511.17 271.13,517.71 266.38,525.13C261.63,532.54 255.42,539 247.75,544.5C244.75,546.67 242.92,547.75 242.25,547.75Z" style="fill:rgb(0,162,181);"/>
            </g>
            <g id="path9" transform="matrix(1,0,0,1,151.075,1.20028)">
                <path d="M190,406.5C189.17,406.5 188.75,405.33 188.75,403C188.75,399.33 186.58,392.13 182.25,381.38C177.92,370.63 174.92,365.25 173.25,365.25C171.92,365.25 171.13,365.67 170.88,366.5C170.63,367.33 169.58,367.75 167.75,367.75C165.92,367.75 163.46,366.33 160.38,363.5C157.29,360.67 155.75,358.42 155.75,356.75C155.75,355.92 157.04,353.33 159.63,349C162.21,344.67 163.83,342.5 164.5,342.5C170.83,342.5 176.46,346.25 181.38,353.75C186.29,361.25 189.75,370.92 191.75,382.75L192.5,385.25L193.5,382.75C194.5,375.75 197,365.08 201,350.75C205.17,340.58 209.83,335.5 215,335.5C217.5,335.5 219.96,337.13 222.38,340.38C224.79,343.63 226,346.17 226,348C226,349.5 225.58,351.42 224.75,353.75C223.75,356.92 222.58,358.5 221.25,358.5C220.58,358.5 219.33,357.33 217.5,355C215.67,352.67 213.75,351.5 211.75,351.5C207.25,351.5 203.08,362 199.25,383C197.58,392.17 195.75,398.67 193.75,402.5C192.25,405.17 191,406.5 190,406.5Z" style="fill:rgb(0,162,181);"/>
            </g>
            <g id="path10" transform="matrix(1,0,0,1,151.075,1.20028)">
                <path d="M287.75,202.5L287.5,202.25C287.5,201.75 288.83,200.17 291.5,197.5C304,183.83 310.25,174.67 310.25,170C310.25,165.67 308.25,163.5 304.25,163.5C302.08,163.5 300.21,164.04 298.63,165.13C297.04,166.21 296.08,166.75 295.75,166.75L294.75,166.25L295.25,164C297.08,153.83 301.83,148.75 309.5,148.75C315.67,148.75 318.75,152.58 318.75,160.25C318.75,166.08 316.38,172.71 311.63,180.13C306.88,187.54 300.67,193.92 293,199.25C290,201.42 288.25,202.5 287.75,202.5Z" style="fill:rgb(0,162,181);"/>
            </g>
            <g id="path11" transform="matrix(1,0,0,1,151.075,1.20028)">
                <path d="M73.25,539.5L73,539.25C73,538.75 74.25,537.08 76.75,534.25C89.42,520.58 95.75,511.5 95.75,507C95.75,502.67 93.67,500.5 89.5,500.5C87.33,500.5 85.46,501 83.88,502C82.29,503 81.33,503.58 81,503.75L80.25,503.25L80.5,501.5C82.5,491 87.33,485.75 95,485.75C101.17,485.75 104.25,489.58 104.25,497.25C104.25,502.92 101.88,509.46 97.13,516.88C92.38,524.29 86.17,530.75 78.5,536.25C75.5,538.42 73.75,539.5 73.25,539.5Z" style="fill:rgb(0,162,181);"/>
            </g>
            <g id="path12" transform="matrix(1,0,0,1,151.075,1.20028)">
                <path d="M121.25,157.25C122.92,150.75 125.58,143.75 129.25,136.25C222.58,101.92 269.75,84.75 270.75,84.75C271.42,84.75 271.75,85.17 271.75,86C271.75,86.67 271.42,87.67 270.75,89C267.92,95.83 265.67,99.92 264,101.25C223.17,115.92 175.58,134.58 121.25,157.25Z" style="fill:rgb(0,162,181);"/>
            </g>
            <g id="path13" transform="matrix(1,0,0,1,151.075,1.20028)">
                <path d="M203,209.5C199,209.5 195.42,207.33 192.25,203C188.58,198 186.75,191.5 186.75,183.5L186.75,164.25C186.75,162.75 185.71,161.71 183.63,161.13C181.54,160.54 180.5,158.92 180.5,156.25C180.5,151.92 182.21,147.88 185.63,144.13C189.04,140.38 191.58,138.5 193.25,138.5C195.58,138.5 196.75,142.67 196.75,151C196.75,155.33 196.38,159 195.63,162C194.88,165 194.5,167.58 194.5,169.75C194.5,174.25 195.42,178.58 197.25,182.75C199.42,187.58 202.17,190 205.5,190C209.67,190 213.58,188.13 217.25,184.38C220.92,180.63 222.75,176.17 222.75,171C222.75,168 221.92,162.92 220.25,155.75C218.58,148.58 217.75,144.17 217.75,142.5C217.75,140.83 218.5,138.33 220,135C221.5,131.67 222.67,130 223.5,130C224.83,130 226.67,134.75 229,144.25C231.33,153.75 232.5,160.75 232.5,165.25L232.5,166C232.5,178.67 237.5,185 247.5,185C251.83,185 254.58,182.75 255.75,178.25C246.92,163.08 242.5,151.42 242.5,143.25C242.5,138.58 243.67,134.5 246,131C247.67,128.5 248.75,127.17 249.25,127C250.08,127 250.58,128.58 250.75,131.75C251.25,136.08 251.92,139.67 252.75,142.5C252.92,142.67 253.83,144.92 255.5,149.25L259.25,158.5C261.75,164.67 263,169.42 263,172.75C263,178.75 261.67,185.08 259,191.75C255.5,200.08 250.83,204.25 245,204.25C236.17,204.25 229.92,198.17 226.25,186C222.08,201.67 214.33,209.5 203,209.5Z" style="fill:rgb(0,162,181);"/>
            </g>
            <g id="path14" transform="matrix(1,0,0,1,151.075,1.20028)">
                <path d="M181.75,99.75L181.5,99.75C180.5,99.75 180,98 180,94.5C180,72.83 166.5,54.75 139.5,40.25C138.5,39.58 138,38.75 138,37.75L141.25,26C141.42,25.5 141.75,25.25 142.25,25.25L143.5,25.5C164.5,34.67 177.67,50.75 183,73.75C184,77.92 184.5,82.08 184.5,86.25C184.5,89.25 184.25,92.21 183.75,95.13C183.25,98.04 182.58,99.58 181.75,99.75Z" style="fill:rgb(0,162,181);"/>
            </g>
            <g id="path15" transform="matrix(1,0,0,1,151.075,1.20028)">
                <path d="M179.75,495.75C152.58,495.75 133.58,482.75 122.75,456.75C116.58,442.08 113.5,424.83 113.5,405C113.5,378.83 116.67,354.5 123,332C124.67,325.83 125.5,321.83 125.5,320C125.5,318.83 125.17,318.25 124.5,318.25C123.33,318.25 120.83,321.25 117,327.25C111,336.75 104.58,356.08 97.75,385.25C89.08,422.75 83.42,445.33 80.75,453C77.25,463.83 72.25,472.5 65.75,479C60.42,484.5 55.83,487.25 52,487.25C34.5,487.25 21,476.17 11.5,454C3.83,435.67 0,413.5 0,387.5C0,369.33 2.75,349.58 8.25,328.25C10.75,319.42 12.83,315 14.5,315C15.33,315 15.75,316.5 15.75,319.5C15.75,322 15.33,325.33 14.5,329.5C11.5,345.67 10,361 10,375.5C10,427.33 21,453.25 43,453.25C52.5,453.25 60.33,446.17 66.5,432C70.5,423 75.25,406.08 80.75,381.25C87.25,353.75 92.75,333.58 97.25,320.75C102.42,306.08 108.75,293.08 116.25,281.75C124.58,269.08 131.83,262.75 138,262.75C142.83,262.75 145.25,268 145.25,278.5C145.25,287.33 142.79,305.08 137.88,331.75C132.96,358.42 130.5,376.33 130.5,385.5C130.5,405.33 134.67,420.88 143,432.13C151.33,443.38 162.83,449 177.5,449C204.17,449 224.25,440.58 237.75,423.75C248.42,410.58 253.75,394.25 253.75,374.75C253.75,342.75 249.17,313 240,285.5C237.17,276.5 235.67,272 235.5,272C235.5,261.33 238.92,246.67 245.75,228C247.42,224 248.67,222 249.5,222C250.67,222 252.5,224.67 255,230C264.83,250.67 272.67,282.42 278.5,325.25C283.83,365.25 291.63,393.83 301.88,411C312.13,428.17 327.67,436.75 348.5,436.75C365.83,436.75 377.25,430.5 382.75,418C382.75,413.5 379.08,404.08 371.75,389.75C353.08,353.58 341.17,316.25 336,277.75C334.83,269.75 334,264.83 333.5,263C332.5,258.5 330.42,254.17 327.25,250C334.42,226.17 339.25,214.25 341.75,214.25C342.92,214.25 344.83,216.17 347.5,220C359.83,237.17 370.17,252.5 378.5,266C382,271.5 383.75,275.42 383.75,277.75C383.75,279.58 383,280.5 381.5,280.5C378.33,280.5 372.75,277.92 364.75,272.75C363.92,272.75 363.25,273.25 362.75,274.25C365.58,284.42 370.08,298.33 376.25,316C390.25,355.83 397.25,384.92 397.25,403.25C397.25,421.42 394.58,437.25 389.25,450.75C380.08,473.75 364.42,485.25 342.25,485.25C318.58,485.25 299.92,475 286.25,454.5C277.92,442.17 270.58,423.75 264.25,399.25C261.58,423.92 253.75,445.25 240.75,463.25C224.92,484.92 204.58,495.75 179.75,495.75Z" style="fill:rgb(0,205,119);"/>
            </g>
            <g id="path16" transform="matrix(1,0,0,1,151.075,1.20028)">
                <path d="M275.25,575.5C272.92,575.5 271.75,575 271.75,574C271.75,573 273.92,571.08 278.25,568.25C298.92,556.58 332.67,536.33 379.5,507.5C432.5,473.17 459,437.25 459,399.75C459,360.75 447.58,316.08 424.75,265.75C404.25,220.58 378.67,179.17 348,141.5L297.75,73.25C295.42,70.08 291.33,65.58 285.5,59.75C281.33,55.58 279.25,52.75 279.25,51.25L279.25,6.75C279.25,2.25 280.33,0 282.5,0C283.67,0 285.08,0.67 286.75,2L367.75,71C372.75,75.17 375.25,78.33 375.25,80.5C375.25,81.83 374,82.5 371.5,82.5C368,82.5 362,80.92 353.5,77.75C349.5,76.25 346.83,75.5 345.5,75.5C344.67,75.5 344.25,75.75 344.25,76.25C344.25,77.08 345.33,78.58 347.5,80.75C383,116.25 412.5,158.33 436,207C462.5,261.83 475.75,315.17 475.75,367C475.75,418 463.83,460.33 440,494C421.5,520.17 400.33,538.67 376.5,549.5C367.17,554 351.17,559.17 328.5,565C302.17,572 284.42,575.5 275.25,575.5Z" style="fill:rgb(0,205,119);"/>
            </g>
        </g>
    </g>
</svg>
