<?xml version="1.0" encoding="utf-8"?>
<!-- Svg Vector Icons : http://www.onlinewebfonts.com/icon -->
<!DOCTYPE svg PUBLIC "-//W3C//DTD SVG 1.1//EN" "http://www.w3.org/Graphics/SVG/1.1/DTD/svg11.dtd">
<svg version="1.1" xmlns="http://www.w3.org/2000/svg" xmlns:xlink="http://www.w3.org/1999/xlink" x="0px" y="0px" viewBox="0 0 1000 1000" enable-background="new 0 0 1000 1000" xml:space="preserve">
<metadata> Svg Vector Icons : http://www.onlinewebfonts.com/icon </metadata>
<g><g><path d="M500,193.8c-219.9,0-398.1,178.2-398.1,398.1S280.1,990,500,990s398.1-178.2,398.1-398.1S719.9,193.8,500,193.8z M500,928.8c-185.8,0-336.9-151.2-336.9-336.9C163.1,406.1,314.2,255,500,255c185.7,0,336.9,151.1,336.9,336.9C836.9,777.6,685.7,928.8,500,928.8z M201.9,198.2c-8.4-14.7-3.4-33.4,11.2-41.9l53.1-30.6c14.6-8.5,33.4-3.5,41.8,11.2l33,57.1c-38.4,15.4-73.9,36.2-106,61.5L201.9,198.2z M765,255.5c-32-25.2-67.6-46.1-106-61.5l33-57.1c8.4-14.7,27.2-19.7,41.9-11.2l53,30.6c14.7,8.5,19.7,27.2,11.2,41.9L765,255.5z M408.1,101.9V40.6c0-16.9,13.7-30.6,30.6-30.6h122.5c16.9,0,30.6,13.7,30.6,30.6v61.3c0,16.9-13.7,30.6-30.6,30.6V168c-20.1-2.9-40.4-4.9-61.3-4.9s-41.2,2-61.3,4.9v-35.5C421.8,132.5,408.1,118.8,408.1,101.9z M500,316.3l61.3,275.6c0,33.9-27.4,61.3-61.3,61.3c-33.9,0-61.3-27.4-61.3-61.3L500,316.3z"/></g><g></g><g></g><g></g><g></g><g></g><g></g><g></g><g></g><g></g><g></g><g></g><g></g><g></g><g></g><g></g></g>
</svg>