<?xml version="1.0" encoding="UTF-8" standalone="no"?>
<!DOCTYPE svg PUBLIC "-//W3C//DTD SVG 1.1//EN" "http://www.w3.org/Graphics/SVG/1.1/DTD/svg11.dtd">
<svg width="100%" height="100%" viewBox="0 0 1248 1250" version="1.1" xmlns="http://www.w3.org/2000/svg" xmlns:xlink="http://www.w3.org/1999/xlink" xml:space="preserve" xmlns:serif="http://www.serif.com/" style="fill-rule:evenodd;clip-rule:evenodd;stroke-linejoin:round;stroke-miterlimit:2;">
    <g transform="matrix(1,0,0,1,-651.768,-1025.06)">
        <g transform="matrix(4.16667,0,0,4.16667,0,0)">
            <g transform="matrix(1.3784,0,0,1.3784,-140.632,-58.5087)">
                <g>
                    <path d="M406.547,277.349C406.547,274.16 406.043,271.586 405.07,269.646C405.07,268.328 405.973,265.613 407.809,261.488C408.188,260.57 408.617,260.59 409.066,261.527C409.59,262.641 410.797,265.703 412.688,270.707C414.664,275.927 415.836,279.148 416.16,280.391C416.41,281.254 416.555,281.937 416.555,282.387C416.555,283.883 415.152,283.02 412.379,279.797C412.055,279.398 411.895,279.617 411.895,280.426C411.895,280.73 412.922,294.934 414.953,323.031C416.988,351.148 418.016,366.449 418.016,368.914C418.016,376.563 416.844,383.242 414.539,388.93C414.055,390.117 413.656,390.965 413.352,391.484C412.902,392.223 412.633,392.313 412.523,391.773C412.398,391.215 412.453,389.992 412.688,388.102C412.973,385.492 413.137,382.449 413.137,378.977C413.137,375.914 412.039,358.887 409.844,327.926C407.645,296.949 406.547,280.082 406.547,277.349Z" style="fill:rgb(255,176,0);fill-rule:nonzero;"/>
                    <g transform="matrix(0.24,0,0,0.24,0,0)">
                        <path d="M1499.68,1692.91C1480.74,1701.03 1466.29,1707.4 1456.66,1711.96C1436.33,1721.42 1422.3,1729.13 1414.73,1735.14C1400.78,1746.01 1380.52,1766.8 1353.91,1797.4C1338.07,1815.69 1322.1,1824.92 1306.12,1824.92C1292.69,1824.92 1281,1818.85 1270.95,1806.77C1260.37,1794.17 1255.12,1778.79 1255.12,1760.56C1255.12,1735.51 1265.4,1702.82 1286.02,1662.53C1288.2,1658.33 1289.85,1656.23 1291.05,1656.23C1291.65,1656.4 1291.88,1656.92 1291.88,1657.81C1291.88,1661.95 1287.45,1675.96 1278.45,1700.03C1269.53,1724.12 1265.1,1743.16 1265.1,1757.11C1265.1,1767.84 1267.58,1776.38 1272.61,1782.76C1277.85,1789.67 1285.27,1793.2 1294.73,1793.2C1311.44,1793.2 1328.32,1784.63 1345.42,1767.69C1356.22,1754.78 1367.1,1741.96 1377.9,1729.07C1391.99,1713.17 1410.53,1698.99 1433.48,1686.54C1446.91,1679.18 1503.53,1654.59 1503.53,1654.59L1536.6,1640.56C1531.87,1627.59 1529.56,1614.32 1529.56,1600.9C1529.56,1580.57 1532.55,1564.21 1538.56,1551.84C1544.63,1539.53 1552.57,1533.38 1562.47,1533.38C1571.26,1533.38 1579.49,1540.66 1587.23,1555.37C1594.12,1568.34 1597.66,1580.19 1597.66,1590.77C1597.66,1617.61 1589.78,1639.67 1574.03,1656.84C1585.2,1668.39 1598.55,1674.17 1614.15,1674.17L1614.18,1674.19L1614.23,1674.17C1627.2,1674.17 1639.8,1669.14 1652.02,1659.1C1655.55,1656.09 1657.36,1645.3 1657.36,1626.55C1657.36,1615.14 1651.27,1525.73 1639.19,1358.42C1627.13,1191.02 1621.12,1100.26 1621.12,1086.17C1621.12,1073.11 1618.8,1062.39 1614.23,1053.99C1614.23,1049.12 1618.05,1037.86 1625.78,1020.25C1626.6,1018.07 1627.42,1017.01 1628.25,1017.01C1629.07,1017.01 1630.05,1018.07 1631.17,1020.25C1633.35,1025.11 1638.45,1037.86 1646.47,1058.5C1654.8,1080.16 1659.75,1093.59 1661.39,1098.76C1662.23,1102.59 1662.68,1105.44 1662.68,1107.31C1662.68,1113.23 1656.9,1109.63 1645.51,1096.29C1644.16,1094.42 1643.48,1095.25 1643.48,1098.76C1643.48,1099.59 1649.17,1178.86 1660.58,1336.59C1671.97,1494.38 1677.67,1580.05 1677.67,1593.62C1677.67,1632.91 1670.62,1663.88 1656.53,1686.39C1644.53,1705.37 1630.42,1714.89 1614.23,1714.89L1614.19,1714.86L1614.15,1714.89C1599.07,1714.89 1583.71,1708.28 1567.95,1695.08C1559.55,1688.04 1552.95,1680.47 1548.23,1672.3L1503.53,1691.26L1499.68,1692.91ZM1587.3,1608.24C1587.3,1603.74 1583.77,1596.84 1576.87,1587.47C1569.3,1577.41 1562.7,1572.46 1557.15,1572.46C1552.95,1572.46 1548.83,1575.02 1544.78,1580.19C1540.72,1585.29 1538.7,1590.17 1538.7,1594.81C1538.7,1598.71 1540.87,1605.62 1545.38,1615.36C1549.2,1623.91 1552.13,1629.69 1554.3,1632.62C1559.99,1629.92 1566.52,1626.09 1573.88,1621.06C1582.8,1615.07 1587.3,1610.79 1587.3,1608.24Z" style="fill:rgb(0,180,122);fill-rule:nonzero;"/>
                    </g>
                    <g transform="matrix(1,0,0,1,-2.92,1.18044)">
                        <path d="M328.645,315.293C328.645,312.16 328.156,309.586 327.188,307.57C327.188,306.437 328.086,303.734 329.902,299.469C330.137,298.949 330.336,298.695 330.496,298.695C330.695,298.695 330.91,298.965 331.184,299.523C331.703,300.621 332.91,303.684 334.781,308.703C336.781,313.906 337.934,317.109 338.258,318.316C338.508,319.234 338.652,319.918 338.652,320.367C338.652,321.809 337.266,320.945 334.492,317.777C334.172,317.324 334.008,317.523 334.008,318.371C334.008,318.656 334.711,328.664 336.148,348.395C337.59,368.121 338.309,379.227 338.309,381.695C338.309,389.289 337.141,395.969 334.836,401.727C334.352,402.898 333.953,403.742 333.664,404.266C333.215,405.039 332.945,405.148 332.84,404.609C332.711,404.012 332.766,402.773 332.98,400.883C333.27,398.289 333.434,395.266 333.434,391.809C333.434,388.676 332.621,375.824 331.039,353.234C329.438,330.645 328.645,317.992 328.645,315.293Z" style="fill:rgb(227,49,59);fill-rule:nonzero;"/>
                    </g>
                    <path d="M323.496,382.379C323.496,388.426 322.129,393.016 319.391,396.148C315.09,401.152 308.773,406.012 300.457,410.691C289.906,416.559 280.078,419.492 270.973,419.492C258.73,419.492 250.309,413.5 245.684,401.512C244.781,399.172 244.332,396.184 244.332,392.531C244.332,390.117 244.512,387.687 244.906,385.203C245.504,381.566 246.313,378.363 247.355,375.629C247.68,374.801 248.004,374.367 248.328,374.367C248.652,374.367 248.723,374.926 248.527,376.023C248.129,377.715 247.734,379.406 247.355,381.102C246.707,384.105 246.383,386.32 246.383,387.742C246.383,392.691 248.039,397.246 251.352,401.402C255.852,406.949 262.352,409.719 270.883,409.719C278.352,409.719 286.289,407.957 294.695,404.445C301.465,401.637 307.547,398.129 312.949,393.898C317.824,390.117 320.273,387.418 320.273,385.797C320.273,385.527 319.266,383.422 317.25,379.445C314.84,374.762 313.039,370.191 311.867,365.762C311.418,364.27 310.879,363.262 310.266,362.738C309.652,362.219 309.348,361.676 309.348,361.082C309.348,360.633 309.797,358.223 310.699,353.867C310.844,353.074 311.039,352.695 311.293,352.695C311.563,352.695 311.887,352.875 312.266,353.273C313.508,354.641 316.172,357.34 320.273,361.371C320.922,362.039 321.246,362.559 321.246,362.937C321.246,363.406 320.867,363.621 320.074,363.621C319.23,363.621 317.969,363.371 316.277,362.848C316.402,363.371 317.773,366.23 320.363,371.434C322.453,375.664 323.496,379.316 323.496,382.379Z" style="fill:rgb(154,75,183);fill-rule:nonzero;"/>
                    <path d="M364.609,245.109C364.609,241.961 364.121,239.367 363.148,237.352C363.148,236.074 364.051,233.375 365.867,229.25C366.266,228.332 366.695,228.352 367.145,229.289C367.668,230.402 368.875,233.465 370.746,238.469C372.742,243.687 373.895,246.891 374.219,248.098C374.473,249.016 374.617,249.699 374.617,250.148C374.617,251.59 373.23,250.727 370.457,247.559C370.133,247.109 369.973,247.305 369.973,248.152C369.973,248.441 370.836,260.555 372.602,284.477C374.363,308.414 375.246,321.609 375.246,324.074C375.246,331.637 374.074,338.312 371.734,344.109C371.25,345.281 370.855,346.125 370.566,346.648C370.098,347.387 369.828,347.477 369.738,346.937C369.594,346.379 369.648,345.152 369.883,343.262C370.172,340.652 370.313,337.629 370.313,334.172C370.313,331.094 369.359,316.156 367.453,289.355C365.543,262.57 364.609,247.809 364.609,245.109Z" style="fill:rgb(115,184,74);fill-rule:nonzero;"/>
                    <g transform="matrix(0.24,0,0,0.24,0,0)">
                        <path d="M1174.59,1471.3C1155.64,1479.42 1141.13,1485.77 1131.49,1490.35C1111.16,1499.79 1097.14,1507.52 1089.56,1513.51C1075.61,1524.4 1055.36,1545.17 1028.74,1575.77C1012.92,1594.06 996.948,1603.29 980.965,1603.29C967.535,1603.29 955.835,1597.22 945.794,1585.14C935.215,1572.54 929.973,1557.16 929.973,1538.93C929.973,1513.88 940.244,1481.18 960.865,1440.92C963.044,1436.72 964.69,1434.62 965.894,1434.62C966.494,1434.77 966.706,1435.29 966.706,1436.2C966.706,1440.32 962.298,1454.35 953.294,1478.42C944.36,1502.49 939.931,1521.53 939.931,1535.5C939.931,1546.21 942.406,1554.77 947.435,1561.13C952.694,1568.03 960.115,1571.57 969.573,1571.57C986.285,1571.57 1003.17,1563.02 1020.27,1546.06C1031.06,1533.17 1041.93,1520.35 1052.74,1507.44C1066.84,1491.54 1085.36,1477.36 1108.31,1464.91C1121.74,1457.57 1145.29,1446.91 1178.44,1432.96L1180.09,1432.26C1214.57,1417.61 1237.26,1406.22 1248.18,1398.16C1251.41,1395.77 1252.55,1392.46 1251.41,1388.41C1245.48,1366.75 1221.04,1337.86 1178.07,1301.79C1136.97,1268.64 1095.86,1235.56 1054.76,1202.49C1053.34,1201.29 1052.59,1196.79 1052.59,1189.06C1052.59,1179.02 1053.63,1168.67 1055.82,1157.94C1058.14,1145.87 1060.99,1138.3 1064.37,1135.37C1114.54,1090.28 1176.71,1044.61 1250.82,998.192C1321.77,954.083 1366.24,932.112 1384.24,932.112C1391.59,932.112 1396.62,933.546 1399.31,936.458C1402.01,939.388 1403.36,944.337 1403.36,951.383C1403.36,967.513 1393.76,987.612 1374.49,1011.62C1367.29,1019.79 1360.02,1027.96 1352.74,1036.21C1341.18,1049.64 1333.39,1060.6 1329.34,1069C1326.63,1074.69 1324.91,1077.54 1324.24,1077.54C1323.56,1077.54 1324.02,1073.71 1325.45,1066.15C1326.26,1061.95 1329.49,1054.67 1335.04,1044.38C1340.07,1034.86 1343.82,1028.71 1346.44,1025.86C1368.11,1001.19 1381.16,984.992 1385.44,977.263C1385.9,976.596 1386.11,975.846 1386.11,975.017C1386.11,969.758 1382.13,967.137 1374.26,967.137C1372.24,967.137 1370.06,967.367 1367.73,967.888C1349.59,971.858 1309.32,994.058 1247,1034.63C1180.54,1077.62 1118.89,1122.46 1061.89,1169.11C1060.16,1170.62 1060.39,1171.89 1062.72,1173.01C1086.42,1187.48 1109.74,1202.49 1132.69,1217.94C1187.88,1255.37 1236.71,1292.27 1279.32,1328.65C1292.21,1339.89 1305.04,1351.22 1317.94,1362.61C1330.02,1371.61 1341.95,1377.06 1353.7,1378.96C1356.85,1379.47 1362.3,1380.4 1365.41,1380.4C1388.55,1381.95 1405.26,1382.44 1429.51,1380.42C1431.89,1380.22 1435.81,1379.43 1438.26,1379.26C1440.31,1379.26 1436.22,1379.51 1438.26,1379.26C1449.08,1377.92 1459.63,1373.02 1469.92,1364.57C1473.45,1361.64 1475.25,1350.77 1475.25,1332.02C1475.25,1320.62 1471.73,1266.1 1464.68,1168.44C1457.62,1070.78 1454.1,1014.91 1454.1,1000.81C1454.1,987.758 1452,977.033 1447.95,968.638C1447.95,963.771 1451.78,952.521 1459.34,934.896C1460.17,932.717 1461,931.675 1461.75,931.675C1462.58,931.675 1463.56,932.717 1464.6,934.896C1466.55,939.763 1471.58,952.521 1479.67,973.146C1487.86,994.808 1492.58,1008.24 1493.93,1013.41C1494.97,1017.17 1495.58,1020.02 1495.58,1021.97C1495.58,1027.9 1489.88,1024.28 1478.48,1010.94C1477.13,1009.07 1476.45,1009.9 1476.45,1013.41C1476.45,1014.24 1479.6,1058.64 1485.97,1146.7C1492.35,1234.73 1495.58,1285.51 1495.58,1299.09C1495.58,1338.4 1488.53,1369.37 1474.43,1391.86C1465.13,1406.55 1454.59,1415.57 1442.79,1418.9C1439.35,1419.88 1435.11,1421.45 1431.45,1421.45C1411.57,1424.59 1390.8,1424.24 1365.01,1421.45C1361.68,1421.45 1356.46,1420.13 1353.16,1419.66C1337.49,1417.45 1322.11,1409.96 1306.99,1397.18C1290.05,1381.28 1273.02,1365.46 1255.91,1349.56C1253.74,1347.69 1252.38,1346.71 1251.87,1346.71C1251.19,1346.71 1251.71,1348.75 1253.51,1352.78C1259.74,1367.19 1262.82,1377.46 1262.82,1383.55C1262.82,1406.5 1256.21,1423.81 1242.94,1435.6C1233.42,1444.14 1211.97,1455.53 1178.44,1469.65L1174.59,1471.3Z" style="fill:rgb(255,97,6);fill-rule:nonzero;"/>
                    </g>
                    <g transform="matrix(0.24,0,0,0.24,1.31651,0.75)">
                        <path d="M962.847,1388.64C945.115,1388.58 930.475,1384.75 918.862,1377.23C901.237,1366.06 892.462,1347.23 892.462,1320.6C892.462,1295.7 902.733,1263 923.371,1222.58C925.537,1218.54 927.262,1216.5 928.613,1216.5C929.133,1216.73 929.442,1217.25 929.442,1218.08C929.442,1219.43 929.071,1221.39 928.237,1223.78C923.583,1235.71 919.013,1247.7 914.437,1259.63C909.8,1272.38 907.538,1282.81 907.538,1290.9C907.538,1309.65 912.646,1323.83 923,1333.43C933.267,1343.1 946.696,1347.9 963.267,1347.9L963.481,1347.9C981.733,1347.84 1004.02,1339.98 1030.32,1324.28L1030.43,1324.23C1023.26,1302.01 1018.24,1279.55 1015.4,1256.79C1014.86,1252.8 1014.49,1250.41 1014.19,1249.43C1013.36,1246.44 1011.64,1243.21 1008.94,1239.68L1018.1,1217.48C1019.52,1213.8 1020.87,1212.01 1021.93,1212.01C1022.88,1212.01 1024.46,1213.8 1026.79,1217.48L1050.2,1254.9C1053.34,1259.93 1054.83,1263.61 1054.83,1265.93C1054.83,1267.58 1054.08,1268.41 1052.44,1268.41C1049.59,1268.41 1044.5,1266 1037.14,1261.28C1039.22,1275.43 1043.85,1293.38 1051.13,1315C1062.95,1309.99 1076.06,1307.49 1090.4,1307.49C1101.87,1307.49 1111.02,1312.29 1117.69,1322.04C1124.45,1331.7 1127.82,1344.45 1127.82,1360.35C1127.82,1373.49 1124.97,1384.36 1119.27,1392.9C1113.58,1401.47 1105.99,1405.73 1096.7,1405.73C1083.64,1405.73 1071.27,1399.95 1059.63,1388.41C1050.8,1379.7 1044.27,1370.18 1039.91,1359.68C1008.04,1378.95 982.471,1388.64 963.267,1388.64L962.847,1388.64ZM1098.49,1365.01C1103.74,1365.01 1106.45,1363.58 1106.45,1360.73C1106.45,1356.53 1102.69,1352.86 1095.2,1349.71C1089.65,1347.46 1080.65,1347.38 1068.2,1349.56C1074.79,1359.83 1084.91,1365.01 1098.49,1365.01Z" style="fill:rgb(0,157,160);fill-rule:nonzero;"/>
                    </g>
                    <g transform="matrix(1,0,0,1,4,5.33333)">
                        <path d="M293.887,377.445C293.887,378.723 293.438,379.805 292.535,380.703C291.637,381.605 290.555,382.055 289.297,382.055C288.02,382.055 286.938,381.605 286.039,380.703C285.137,379.805 284.707,378.723 284.707,377.445C284.707,376.187 285.137,375.086 286.039,374.187C286.938,373.27 288.02,372.82 289.297,372.82C290.555,372.82 291.637,373.27 292.535,374.187C293.438,375.086 293.887,376.187 293.887,377.445Z" style="fill:rgb(255,176,0);fill-rule:nonzero;"/>
                    </g>
                    <g transform="matrix(1,0,0,1,-1.5,14)">
                        <path d="M258.535,330.125C258.535,331.402 258.086,332.48 257.183,333.383C256.285,334.281 255.203,334.73 253.945,334.73C252.664,334.73 251.586,334.281 250.668,333.383C249.77,332.48 249.316,331.402 249.316,330.125C249.316,328.863 249.77,327.766 250.668,326.867C251.586,325.949 252.664,325.496 253.945,325.496C255.203,325.496 256.285,325.949 257.183,326.867C258.086,327.766 258.535,328.863 258.535,330.125ZM247.844,330.125C247.844,331.402 247.375,332.48 246.473,333.383C245.555,334.281 244.477,334.73 243.199,334.73C241.938,334.73 240.859,334.281 239.957,333.383C239.059,332.48 238.625,331.402 238.625,330.125C238.625,328.863 239.059,327.766 239.957,326.867C240.859,325.949 241.938,325.496 243.199,325.496C244.477,325.496 245.555,325.949 246.473,326.867C247.375,327.766 247.844,328.863 247.844,330.125Z" style="fill:rgb(115,185,73);fill-rule:nonzero;"/>
                    </g>
                    <g transform="matrix(1,0,0,1,3.33333,0.666667)">
                        <path d="M381.977,357.176C381.977,358.457 381.527,359.535 380.629,360.437C379.727,361.336 378.648,361.785 377.387,361.785C376.109,361.785 375.031,361.336 374.113,360.437C373.211,359.535 372.762,358.457 372.762,357.176C372.762,355.918 373.211,354.82 374.113,353.918C375.031,353 376.109,352.551 377.387,352.551C378.648,352.551 379.727,353 380.629,353.918C381.527,354.82 381.977,355.918 381.977,357.176ZM371.285,357.176C371.285,358.457 370.816,359.535 369.918,360.437C369,361.336 367.922,361.785 366.641,361.785C365.383,361.785 364.301,361.336 363.402,360.437C362.504,359.535 362.07,358.457 362.07,357.176C362.07,355.918 362.504,354.82 363.402,353.918C364.301,353 365.383,352.551 366.641,352.551C367.922,352.551 369,353 369.918,353.918C370.816,354.82 371.285,355.918 371.285,357.176Z" style="fill:rgb(134,81,147);fill-rule:nonzero;"/>
                    </g>
                    <g transform="matrix(0.99984,0.0178934,-0.0178934,0.99984,7.15764,-6.8071)">
                        <path d="M422.641,339.953C422.891,338.727 423.918,335.344 425.734,329.801C426.836,326.414 427.391,322.437 427.391,317.867C427.391,316.77 427.355,315.578 427.32,314.301C427.066,308.09 424.313,302.352 419.074,297.113C418.66,296.699 418.59,296.23 418.895,295.707L420.785,292.359C421.004,292.02 421.273,292.02 421.613,292.359C424.871,295.492 427.031,298.391 428.074,301.055C428.977,303.285 429.59,306.902 429.91,311.906C430.004,313.004 430.055,314.086 430.055,315.129C430.055,318.98 429.137,323.75 427.301,329.422C425.465,335.09 424.547,339.086 424.547,341.41C424.547,344.758 425.484,346.434 427.391,346.434C428.488,346.434 429.73,345.102 431.137,342.418C431.262,342.164 431.387,341.984 431.516,341.859C431.641,341.77 431.711,341.789 431.711,341.914C431.746,342.039 431.746,342.254 431.711,342.543C430.559,348.773 428.707,351.887 426.113,351.887C423.469,351.887 422.137,349.383 422.137,344.398C422.137,342.992 422.297,341.52 422.641,339.953Z" style="fill:rgb(0,161,117);fill-rule:nonzero;"/>
                    </g>
                    <g transform="matrix(1,0,0,1,-0.25,0.35)">
                        <path d="M356.902,412.473C358.723,412.473 360.359,413.555 361.801,415.715C363.258,417.875 364.266,420.699 364.859,424.191C364.914,424.551 364.949,424.77 364.949,424.82C365.023,424.93 365.059,424.93 365.094,424.82C365.129,424.77 365.203,424.551 365.348,424.191C365.633,422.105 366.355,418.988 367.488,414.867C368.73,411.898 370.078,410.422 371.539,410.422C372.293,410.422 373.031,410.926 373.789,411.934C374.438,412.816 374.762,413.52 374.762,414.074C374.762,414.508 374.652,415.066 374.418,415.75C374.129,416.648 373.789,417.117 373.391,417.117C373.23,417.117 372.871,416.758 372.313,416.055C371.773,415.355 371.195,415.012 370.602,415.012C369.305,415.012 368.102,418.09 367.004,424.227C366.516,426.91 365.977,428.801 365.383,429.898C364.969,430.652 364.609,431.031 364.32,431.031C364.051,431.031 363.926,430.691 363.926,430.004C363.926,428.926 363.313,426.836 362.07,423.723C360.828,420.609 359.965,419.062 359.441,419.062C359.082,419.062 358.848,419.168 358.758,419.402C358.648,419.621 358.363,419.746 357.875,419.746C357.316,419.746 356.598,419.332 355.699,418.523C354.797,417.711 354.367,417.047 354.367,416.559C354.367,416.344 354.727,415.605 355.48,414.344C356.238,413.086 356.707,412.473 356.902,412.473Z" style="fill:rgb(228,48,59);fill-rule:nonzero;"/>
                    </g>
                    <g transform="matrix(1,0,0,1,0.1,0.5)">
                        <path d="M345.438,425.758C345.438,427.414 344.754,429.305 343.387,431.426C341.98,433.641 340.184,435.531 337.969,437.098C337.086,437.711 336.563,438.035 336.402,438.035C336.367,438.035 336.367,438.016 336.367,437.98C336.367,437.855 336.727,437.367 337.48,436.559C341.117,432.578 342.953,429.934 342.953,428.582C342.953,427.324 342.359,426.695 341.191,426.695C340.543,426.695 339.949,426.875 339.426,427.234C339.047,427.484 338.797,427.629 338.707,427.664C338.633,427.594 338.563,427.559 338.453,427.523C338.488,427.395 338.563,427.055 338.652,426.496C339.246,423.758 340.598,422.391 342.758,422.391C344.539,422.391 345.438,423.508 345.438,425.758Z" style="fill:rgb(115,185,73);fill-rule:nonzero;"/>
                    </g>
                    <g transform="matrix(1,0,0,1,0.2,0.55)">
                        <path d="M289.512,432.941C290.43,432.941 291.277,432.543 292.105,431.75C293.039,430.852 293.508,429.719 293.508,428.352C293.508,426.836 292.66,426.102 290.969,426.102C290.23,426.102 289.586,426.316 289.027,426.785C289.027,425.902 289.637,424.535 290.879,422.68C291.977,420.953 293.094,419.582 294.191,418.574C294.461,418.27 294.535,418.02 294.445,417.785C294.371,417.586 294.191,417.586 293.902,417.746C292.465,418.613 290.934,420.27 289.313,422.68C287.461,425.379 286.543,427.703 286.543,429.664C286.543,431.84 287.531,432.941 289.512,432.941Z" style="fill:rgb(234,100,59);fill-rule:nonzero;"/>
                    </g>
                    <g transform="matrix(0.809184,0,0,0.809184,73.6755,45.7421)">
                        <path d="M383.023,245.184C383.094,245.055 383.148,244.949 383.219,244.895C383.293,244.84 383.309,244.859 383.309,244.91C383.348,244.984 383.348,245.09 383.309,245.234C382.734,248.402 381.797,249.988 380.484,249.988C379.078,249.988 378.395,248.816 378.395,246.496C378.395,243.652 379.223,240.645 380.863,237.512C381.277,236.738 381.527,236.344 381.602,236.324C381.637,236.324 381.637,236.324 381.637,236.344C381.637,236.504 381.527,236.937 381.293,237.676C380.215,240.934 379.691,243.219 379.691,244.535C379.691,246.316 380.16,247.215 381.133,247.215C381.691,247.215 382.32,246.531 383.023,245.184Z" style="fill:rgb(228,48,59);fill-rule:nonzero;"/>
                    </g>
                    <g transform="matrix(0.880314,-0.572739,0.572739,0.880314,-142.527,205.977)">
                        <path d="M317.539,270.957C318.473,271.48 318.926,272.091 318.926,272.812C318.926,273.316 318.707,273.785 318.238,274.234C316.945,275.547 316.133,276.105 315.809,275.945C315.848,275.492 315.395,274.755 314.496,273.746C313.867,273.388 312.191,273.297 309.457,273.461C306.559,273.621 304.219,274.035 302.438,274.719C301.844,274.953 301.555,275.207 301.555,275.513C301.555,276.035 302.508,276.844 304.434,277.941C305.891,278.789 307.781,279.633 310.086,280.461C312.406,281.289 313.813,281.848 314.336,282.152C317.215,283.809 318.527,285.719 318.293,287.859C318.168,289.156 317.34,290.453 315.809,291.766C314.441,292.937 313.488,293.457 312.965,293.332C304.688,291.332 298.855,289.371 295.508,287.41C292.699,285.789 291.313,283.484 291.313,280.48C291.313,279.941 291.367,279.419 291.492,278.935C292.32,280.426 294.211,282.027 297.215,283.754C298.477,284.512 301.699,285.773 306.883,287.57C311.453,289.156 314.316,290.09 315.414,290.344C315.809,288.812 314.352,287.105 311.074,285.176C308.789,284.367 305.676,283.035 301.699,281.219C299.125,279.724 297.848,278.391 297.848,277.203C297.848,276.271 298.711,275.242 300.438,274.125C304.523,271.496 308.809,270.185 313.273,270.185C315.18,270.185 316.602,270.437 317.539,270.957Z" style="fill:rgb(0,161,117);fill-rule:nonzero;"/>
                    </g>
                    <g transform="matrix(1.10014,0,0,1.10014,-37.9209,-31.3782)">
                        <path d="M346.52,287.824C347.777,287.824 348.426,288.437 348.426,289.695C348.426,290.363 348.246,291.047 347.902,291.785C347.688,292.25 347.094,293.062 346.176,294.176C344.844,295.691 343.961,296.77 343.512,297.383C342.758,298.391 342.324,298.895 342.199,298.895C342.18,298.895 342.18,298.859 342.18,298.82C342.18,298.695 342.289,298.355 342.504,297.797C343.008,296.535 343.836,295.258 344.969,293.961C345.637,293.242 346.301,292.504 346.984,291.785C346.734,291.137 346.32,290.828 345.762,290.828C345.348,290.828 344.844,290.973 344.25,291.262C338.473,294.215 332.891,295.691 327.512,295.691C324.559,295.691 321.875,295.043 319.48,293.762C319.824,294.879 319.699,296.23 319.105,297.797C318.887,298.406 318.727,298.73 318.637,298.75C318.563,298.75 318.527,298.371 318.527,297.633C318.527,296.211 318.313,295.004 317.879,293.996C317.809,293.871 317.09,292.773 315.703,290.723C315.918,289.316 316.277,288.598 316.746,288.598C316.801,288.598 317.16,288.852 317.809,289.355C318.617,290 319.41,290.523 320.238,290.957C322.668,292.234 325.332,292.883 328.23,292.883C331.289,292.883 334.223,292.449 337.051,291.566C338.707,291.047 340.688,290.234 342.988,289.121C344.789,288.254 345.961,287.824 346.52,287.824Z" style="fill:rgb(134,81,147);fill-rule:nonzero;"/>
                    </g>
                    <g transform="matrix(1,0,0,1,-3.5,11.5)">
                        <path d="M235.621,280.121C236.305,280.121 237.277,280.605 238.52,281.559C239.762,282.531 240.426,283.379 240.551,284.078C240.57,284.258 240.406,284.727 240.066,285.5C239.723,286.258 239.488,286.672 239.348,286.707C238.23,287.031 237.113,287.336 235.996,287.625C234.613,288.094 233.641,288.633 233.102,289.246C234.648,293.945 235.422,298.57 235.422,303.16C235.422,304.508 235.262,305.879 234.973,307.262C234.863,307.73 234.773,307.984 234.703,308.02C234.559,308.02 234.504,307.211 234.504,305.625C234.504,302.98 234.109,299.793 233.336,296.066C232.559,292.34 232.184,290.199 232.184,289.641C232.184,287.805 232.703,286.457 233.746,285.574C234.254,285.176 235.188,284.762 236.574,284.352C236.016,283.773 235.457,283.504 234.938,283.504C234.684,283.504 234.344,283.793 233.875,284.387C233.426,284.98 233.172,285.285 233.102,285.285C232.973,285.285 232.957,285.035 232.992,284.531C233.316,281.578 234.199,280.121 235.621,280.121Z" style="fill:rgb(134,81,147);fill-rule:nonzero;"/>
                    </g>
                    <g transform="matrix(1.4538,0.221558,-0.221558,1.4538,128.406,-274.107)">
                        <path d="M196.758,345.531C196.848,345.332 196.957,345.191 197.047,345.082C197.152,345.027 197.191,345.047 197.191,345.137C197.227,345.227 197.227,345.387 197.191,345.621C196.324,350.41 194.887,352.805 192.906,352.805C190.781,352.805 189.738,351.039 189.738,347.531C189.738,343.191 190.98,338.656 193.48,333.902C194.113,332.734 194.473,332.121 194.617,332.105C194.633,332.105 194.652,332.121 194.652,332.141C194.652,332.375 194.473,333.039 194.113,334.156C192.492,339.105 191.684,342.562 191.684,344.543C191.684,347.242 192.402,348.609 193.879,348.609C194.723,348.609 195.68,347.582 196.758,345.531Z" style="fill:rgb(115,185,73);fill-rule:nonzero;"/>
                    </g>
                    <g transform="matrix(0.973847,0.227205,-0.227205,0.973847,141.892,-126.812)">
                        <path d="M190.008,371.793C190.098,371.559 190.207,371.414 190.297,371.344C190.367,371.289 190.422,371.309 190.441,371.398C190.477,371.488 190.477,371.648 190.441,371.883C190.223,373.738 189.684,375.395 188.855,376.871C188.027,378.328 187.129,379.066 186.156,379.066C185.074,379.082 184.266,378.543 183.707,377.391C183.168,376.258 182.914,374.727 182.988,372.801C183.078,370.461 183.797,367.457 185.129,363.785C186.266,360.652 187.273,358.457 188.152,357.195C188.711,356.441 189.035,356.043 189.125,356.027C189.16,356.152 189.02,356.582 188.695,357.34C186.73,361.695 185.508,365.727 185.023,369.398C184.949,369.813 184.934,370.246 184.934,370.66C184.934,373.594 185.652,374.996 187.129,374.871C188.012,374.762 188.965,373.738 190.008,371.793Z" style="fill:rgb(228,48,59);fill-rule:nonzero;"/>
                    </g>
                    <g transform="matrix(1,0,0,1,73.3333,24.6667)">
                        <path d="M199.352,365.387C199.352,367.043 198.664,368.934 197.297,371.055C195.895,373.27 194.094,375.16 191.879,376.727C190.996,377.336 190.477,377.66 190.313,377.66C190.277,377.66 190.277,377.645 190.277,377.609C190.277,377.48 190.637,376.996 191.395,376.187C195.031,372.207 196.867,369.562 196.867,368.211C196.867,366.953 196.273,366.32 195.102,366.32C194.453,366.32 193.859,366.5 193.34,366.863C192.961,367.113 192.707,367.258 192.617,367.293C192.547,367.223 192.473,367.187 192.367,367.148C192.402,367.023 192.473,366.684 192.563,366.125C193.156,363.387 194.508,362.02 196.668,362.02C198.449,362.02 199.352,363.137 199.352,365.387Z" style="fill:rgb(0,161,117);fill-rule:nonzero;"/>
                    </g>
                    <g transform="matrix(0.771349,0,0,0.771349,232.878,56.231)">
                        <path d="M199.352,365.387C199.352,367.043 198.664,368.934 197.297,371.055C195.895,373.27 194.094,375.16 191.879,376.727C190.996,377.336 190.477,377.66 190.313,377.66C190.277,377.66 190.277,377.645 190.277,377.609C190.277,377.48 190.637,376.996 191.395,376.187C195.031,372.207 196.867,369.562 196.867,368.211C196.867,366.953 196.273,366.32 195.102,366.32C194.453,366.32 193.859,366.5 193.34,366.863C192.961,367.113 192.707,367.258 192.617,367.293C192.547,367.223 192.473,367.187 192.367,367.148C192.402,367.023 192.473,366.684 192.563,366.125C193.156,363.387 194.508,362.02 196.668,362.02C198.449,362.02 199.352,363.137 199.352,365.387Z" style="fill:rgb(234,100,59);fill-rule:nonzero;"/>
                    </g>
                    <g transform="matrix(0.658959,-0.0538569,0.0538569,0.658959,161.355,34.4561)">
                        <path d="M199.352,365.387C199.352,367.043 198.664,368.934 197.297,371.055C195.895,373.27 194.094,375.16 191.879,376.727C190.996,377.336 190.477,377.66 190.313,377.66C190.277,377.66 190.277,377.645 190.277,377.609C190.277,377.48 190.637,376.996 191.395,376.187C195.031,372.207 196.867,369.562 196.867,368.211C196.867,366.953 196.273,366.32 195.102,366.32C194.453,366.32 193.859,366.5 193.34,366.863C192.961,367.113 192.707,367.258 192.617,367.293C192.547,367.223 192.473,367.187 192.367,367.148C192.402,367.023 192.473,366.684 192.563,366.125C193.156,363.387 194.508,362.02 196.668,362.02C198.449,362.02 199.352,363.137 199.352,365.387Z" style="fill:rgb(255,176,0);fill-rule:nonzero;"/>
                    </g>
                    <g transform="matrix(0.703442,0.276275,-0.276275,0.703442,183.875,23.1909)">
                        <path d="M198.523,384.41C199.441,384.41 200.285,384.016 201.113,383.223C202.051,382.324 202.52,381.191 202.52,379.82C202.52,378.309 201.672,377.57 199.98,377.57C199.242,377.57 198.594,377.789 198.035,378.254C198.035,377.375 198.648,376.004 199.891,374.152C200.988,372.422 202.105,371.055 203.203,370.047C203.473,369.742 203.543,369.488 203.453,369.254C203.383,369.059 203.203,369.059 202.914,369.219C201.473,370.082 199.945,371.738 198.324,374.152C196.469,376.852 195.551,379.172 195.551,381.137C195.551,383.313 196.543,384.41 198.523,384.41Z" style="fill:rgb(255,176,0);fill-rule:nonzero;"/>
                    </g>
                    <g transform="matrix(1,0,0,1,172.667,-24.6667)">
                        <path d="M182.375,408.965C182.375,408.027 180.684,406.605 177.301,404.715C176.258,406.695 175.734,408.496 175.734,410.078C175.734,411.105 176.203,411.609 177.137,411.609C178.004,411.609 178.973,411.305 180.07,410.727C181.188,410.133 181.945,409.559 182.375,408.965ZM179.84,393.574C180.289,392.727 180.809,392.313 181.387,392.313C181.746,392.313 181.926,392.477 181.926,392.801C181.926,392.926 181.891,393.051 181.836,393.176C180.758,395.57 179.84,397.93 179.047,400.27C182.465,402.773 184.066,405.293 183.836,407.793C183.602,410.492 183.238,412.187 182.719,412.871C181.207,414.887 179.352,415.91 177.137,415.91C174.996,415.91 173.934,414.598 173.934,411.988C173.934,409.973 174.652,406.859 176.129,402.609C177.391,398.867 178.633,395.859 179.84,393.574Z" style="fill:rgb(0,158,159);fill-rule:nonzero;"/>
                    </g>
                    <g transform="matrix(1,0,0,1,75.3333,-72)">
                        <path d="M187.164,446.711C192.961,443.184 200.609,439.328 210.148,435.137C218.539,431.426 223.199,429.574 224.102,429.574C224.207,429.59 224.262,429.684 224.262,429.809C224.262,430.168 224.027,430.781 223.543,431.625C223.074,432.473 222.695,432.941 222.391,433.031C219.637,434.039 214.289,436.449 206.387,440.266C197.566,444.531 190.602,448.148 185.508,451.156C185.797,449.84 186.355,448.367 187.164,446.711Z" style="fill:rgb(0,158,159);fill-rule:nonzero;"/>
                    </g>
                    <g transform="matrix(1.39874,-0.292264,0.20453,0.97886,-126.194,-147.482)">
                        <path d="M196.523,469.121C212.652,463.09 229.355,456.879 246.602,450.453C247.121,450.273 247.43,450.203 247.52,450.273C247.66,450.363 247.625,450.633 247.43,451.102C246.836,452.523 246.367,453.387 246.008,453.676C245.809,453.875 237.797,456.934 221.941,462.855C205.777,468.887 196.738,472.449 194.867,473.566C195.191,472.215 195.73,470.738 196.523,469.121Z" style="fill:rgb(115,185,73);fill-rule:nonzero;"/>
                    </g>
                    <g transform="matrix(0.939314,0,0,0.939314,95.8541,-83.3035)">
                        <path d="M282.457,456.07C282.742,455.117 282.816,454.18 282.652,453.227C282.457,452.184 281.988,451.66 281.23,451.66C280.871,451.66 280.387,451.84 279.773,452.184C279.16,452.523 278.84,452.848 278.84,453.172C278.84,453.926 280.043,454.883 282.457,456.07ZM280.602,460.262C277.578,458.699 276.066,457.059 276.066,455.332C276.066,453.242 277.02,451.336 278.945,449.609C280.855,447.898 282.457,447.25 283.715,447.719C284.797,448.094 285.336,449.266 285.336,451.172C285.336,452.902 284.977,454.844 284.258,456.988C285.785,457.871 286.758,458.625 287.137,459.238C287.137,460.047 286.453,461.434 285.086,463.379C284.707,462.766 283.77,462.027 282.313,461.145C280.621,463.484 278.477,465.609 275.867,467.535C272.898,469.715 270.199,471.371 267.715,472.469C267.191,472.738 264.328,473.816 259.129,475.742C258.316,476.031 257.777,476.195 257.508,476.195C257.383,476.195 257.328,476.156 257.328,476.086C257.328,475.887 257.777,475.508 258.68,474.914C262.531,472.629 266.383,470.344 270.254,468.023C274.879,465.23 278.316,462.641 280.602,460.262Z" style="fill:rgb(255,176,0);fill-rule:nonzero;"/>
                    </g>
                </g>
            </g>
        </g>
    </g>
</svg>
