<?xml version="1.0" encoding="iso-8859-1"?>
<!-- Generator: Adobe Illustrator 19.0.0, SVG Export Plug-In . SVG Version: 6.00 Build 0)  -->
<svg version="1.1" id="Capa_1" xmlns="http://www.w3.org/2000/svg" xmlns:xlink="http://www.w3.org/1999/xlink" x="0px" y="0px"
	 viewBox="0 0 463 463" style="enable-background:new 0 0 463 463;" xml:space="preserve">
<g>
	<path d="M397.886,238.967c-1.202-2.712-3.89-4.46-6.856-4.46h-32.162c-3.413-9.876-12.071-31.572-28.48-53.45
		c-29.019-38.692-68.521-59.229-114.27-59.44c-6.534-1.114-56.24-8.741-81.407,12.237c-9.696,8.083-14.613,19.147-14.613,32.886
		c0,20.927,28.343,64.929,43.219,86.583H108.78c-2.546,0-7.078-2.654-11.076-4.997c-6.04-3.538-12.887-7.548-20.285-7.548
		c-18.66,0-19.558,25.105-20.04,38.594c-0.161,4.508-1.549,8.055-3.018,11.81c-1.602,4.096-3.259,8.331-3.259,13.547
		c0,5.921,3.306,11.342,9.07,14.873c5.603,3.432,13.516,5.172,23.519,5.172c4.143,0,7.5-3.358,7.5-7.5s-3.357-7.5-7.5-7.5
		c-1.374,0-2.627-0.047-3.813-0.118c3.929-7.999,9.833-13.734,12.735-16.243h12.241l2.743,24.689
		c0.422,3.798,3.633,6.672,7.454,6.672H221.68c5.604,0,10.723-2.208,14.804-6.385c6.74-6.899,9.872-18.609,11.318-28.744
		c17.999,21.989,30.988,32.73,31.86,33.441c1.349,1.1,3.025,1.688,4.739,1.688c0.43,0,0.862-0.037,1.292-0.112
		c2.145-0.375,4.02-1.663,5.139-3.529l0.003-0.005c3.584,2.37,7.781,3.646,12.176,3.646h94.291c3.353,0,6.298-2.225,7.214-5.45
		C404.979,317.696,415.638,279.012,397.886,238.967z M89.963,278.412c-1.573,0-3.106,0.495-4.383,1.414
		c-0.55,0.396-12.341,9.011-19.386,23.664c0.261-2.028,1.104-4.204,2.137-6.842c1.687-4.313,3.786-9.679,4.038-16.739
		c0.839-23.452,4.621-24.129,5.05-24.129c3.329,0,8.31,2.917,12.704,5.491c3.826,2.241,7.739,4.526,11.813,5.866l1.253,11.276
		H89.963z M225.748,307.911c-1.276,1.305-2.493,1.862-4.068,1.862h-99.915l-4.605-41.45h60.615c2.821,0,5.403-1.583,6.684-4.097
		s1.041-5.533-0.618-7.814c-18.846-25.913-48.743-73.171-48.743-89.672c0-9.199,3.011-16.184,9.204-21.353
		c15.769-13.163,49.099-11.799,65.282-9.604c4.089,15.278,3.347,31.245,1.607,43.328c-0.955-1.906-1.57-3.09-1.677-3.296
		c-1.916-3.672-6.443-5.096-10.118-3.18c-3.672,1.916-5.096,6.445-3.181,10.118c0.114,0.219,10.706,20.611,17.003,38.75
		c-1.605,1.307-2.58,2.165-2.798,2.359c-2.664,2.373-3.288,6.293-1.492,9.376c8.591,14.745,17.1,27.55,25.087,38.527
		C234.142,282.665,232.06,301.46,225.748,307.911z M225.151,231.199c10.035-7.741,34.517-24.5,59.581-25.606
		c4.138-0.183,7.345-3.685,7.162-7.823s-3.66-7.336-7.824-7.162c-22.815,1.007-44.397,12.455-58.242,21.65
		c-1.315-3.528-2.728-7.052-4.156-10.444c2.322-7.818,9.653-36.164,3.61-64.85c37.192,2.635,68.383,20.324,92.816,52.708
		c16.167,21.427,24.386,43.181,27.063,51.16c-8.988,10.495-37.414,13.952-56.278,11.821c-3.353-4.65-7.032-9.711-10.982-15.087
		c-2.453-3.339-7.146-4.056-10.484-1.604c-3.338,2.452-4.057,7.146-1.604,10.484c13.479,18.347,23.812,33.046,28.483,39.756
		l-11.621,19.368C271.88,295.179,249.006,270.857,225.151,231.199z M307.603,279.064c-1.586-2.285-4.18-6.002-7.593-10.831
		c0.154,0,0.303,0.004,0.457,0.004c4.077,0,8.416-0.18,12.833-0.591c-0.487,1.101-1.098,2.123-1.802,3.299
		C310.183,273.139,308.699,275.63,307.603,279.064z M303.011,309.773c-1.631,0-3.177-0.547-4.434-1.548l5.125-8.541h30.065
		c1.992,1.085,5.938,4.989,10.358,10.089H303.011z M334.579,284.684h-12.981c0.591-2.392,1.577-4.043,2.765-6.026
		c1.921-3.206,4.229-7.076,4.945-13.612c10.385-2.512,19.97-6.723,26.27-13.384c10.032,25.667,10.404,47.773,9.827,58.111h-1.961
		C344.594,284.698,337.103,284.684,334.579,284.684z M391.251,309.773h-10.792c0.604-11.732-0.039-34.071-9.658-60.267h15.218
		C395.734,274.75,393.136,299.207,391.251,309.773z"/>
	<path d="M395.195,67.805C351.471,24.08,293.336,0,231.5,0S111.529,24.08,67.805,67.805S0,169.664,0,231.5
		s24.08,119.971,67.805,163.695S169.664,463,231.5,463s119.971-24.08,163.695-67.805S463,293.336,463,231.5
		S438.92,111.529,395.195,67.805z M384.589,384.589C343.697,425.48,289.329,448,231.5,448s-112.197-22.52-153.089-63.411
		C37.52,343.697,15,289.329,15,231.5S37.52,119.303,78.411,78.411C119.303,37.52,173.671,15,231.5,15s112.197,22.52,153.089,63.411
		C425.48,119.303,448,173.671,448,231.5S425.48,343.697,384.589,384.589z"/>
</g>
<g>
</g>
<g>
</g>
<g>
</g>
<g>
</g>
<g>
</g>
<g>
</g>
<g>
</g>
<g>
</g>
<g>
</g>
<g>
</g>
<g>
</g>
<g>
</g>
<g>
</g>
<g>
</g>
<g>
</g>
</svg>
