<?xml version="1.0" encoding="utf-8"?>
<!-- Generator: Adobe Illustrator 24.3.0, SVG Export Plug-In . SVG Version: 6.00 Build 0)  -->
<svg version="1.1" id="Layer_1" xmlns="http://www.w3.org/2000/svg" xmlns:xlink="http://www.w3.org/1999/xlink" x="0px" y="0px"
	 viewBox="0 0 70.87 70.87" style="enable-background:new 0 0 70.87 70.87;" xml:space="preserve">
<path class="st0" d="M58.18,7.45c0.05,0.24,0.03,0.1,0.05,0.36c0.01,0.26,0.02,0.11-0.01,0.37c-0.07,0.69-0.44,1.3-1,1.7
	c-0.6,0.44-1.35,0.65-2.09,0.6c-0.01,0-0.03,0-0.04,0c0.05,0.24,0.03,0.1,0.05,0.36c0.01,0.26,0.02,0.11-0.01,0.37
	c-0.07,0.69-0.44,1.3-1,1.7c-0.6,0.44-1.35,0.65-2.09,0.6c-0.01,0-0.03,0-0.04,0c0.05,0.24,0.03,0.1,0.05,0.35
	c0.01,0.26,0.02,0.11-0.01,0.37c-0.01,0.06-0.01,0.09-0.02,0.11c-0.1,0.7-0.51,1.29-1.1,1.68c-0.38,0.25-0.8,0.41-1.23,0.48
	l-0.04,0.77c0.71,0.3,1.33,0.8,1.7,1.48c0.35,0.63,0.45,1.38,0.19,2.06l-0.02,0.05c-0.13,0.33-0.33,0.62-0.58,0.86l0.24,0.39
	c0.77-0.04,1.55,0.16,2.2,0.56c0.12,0.07,0.23,0.15,0.34,0.23c0.53,0.42,0.95,0.98,1.11,1.65c0.15,0.62,0.06,1.26-0.27,1.8
	c-0.1,0.17-0.04,0.08-0.15,0.22c-0.19,0.25-0.43,0.45-0.69,0.61l0.25,0.63l0.01,0c0.85,0.08,1.66,0.43,2.27,1.02
	c0.13,0.12,0.25,0.26,0.36,0.4c0.36,0.48,0.58,1.07,0.56,1.68c-0.02,0.59-0.26,1.13-0.66,1.55c-0.22,0.23-0.07,0.1-0.32,0.29
	c-0.21,0.16-0.44,0.28-0.68,0.38l0.07,0.36c0.09,0.02,0.17,0.04,0.26,0.07c0.8,0.24,1.52,0.73,1.98,1.43
	c0.09,0.14,0.17,0.29,0.24,0.45c0.23,0.53,0.27,1.12,0.1,1.68c-0.17,0.56-0.55,1.02-1.03,1.33c-0.15,0.1-0.3,0.18-0.47,0.25
	l-0.03,0.01l0.1,0.47c0.21,0.07,0.41,0.16,0.6,0.26c0.71,0.38,1.3,0.99,1.57,1.77c0.07,0.21,0.05,0.08,0.09,0.37l0.01,0.03
	c0.09,0.58-0.02,1.17-0.33,1.67c-0.34,0.53-0.86,0.89-1.45,1.09c-0.16,0.06-0.33,0.1-0.5,0.13c-0.09,0.02-0.18,0.03-0.27,0.04
	l-0.09,0.29c0.29,0.14,0.57,0.31,0.82,0.52c0.32,0.27,0.6,0.61,0.8,0.98h0.21l0.06,1.02c0.01,0.17,0.01,0.08,0,0.22
	c-0.02,0.66-0.32,1.25-0.81,1.69c-0.52,0.47-1.21,0.71-1.9,0.76l-0.02,0.19c0.34,0.15,0.65,0.35,0.94,0.59
	c0.35,0.3,0.65,0.66,0.85,1.06h0.2l0.06,1.02c0.01,0.18,0.01,0.08,0,0.23c-0.02,0.68-0.33,1.3-0.84,1.75
	c-0.55,0.49-1.28,0.75-2.01,0.79c-0.12,0.01-0.25,0.01-0.37,0.01c-0.1,0-0.21-0.01-0.31-0.02l-0.2,0.44
	c0.06,0.04,0.11,0.09,0.16,0.13c0.32,0.27,0.6,0.61,0.8,0.98h0.21l0.06,1.02c0.01,0.17,0.01,0.08,0,0.22
	c-0.02,0.66-0.32,1.25-0.81,1.69c-0.53,0.47-1.22,0.72-1.92,0.76c-0.12,0.01-0.23,0.01-0.35,0.01c-0.02,0-0.04,0-0.06,0
	c0.17,0.2,0.32,0.41,0.43,0.64h0.2l0.06,1.02c0.01,0.18,0.01,0.08,0,0.23c-0.02,0.68-0.33,1.3-0.84,1.75
	c-0.55,0.49-1.28,0.75-2.01,0.79c-0.12,0.01-0.25,0.01-0.37,0.01c-0.15-0.01-0.31-0.02-0.46-0.04c-0.09-0.02-0.18-0.03-0.26-0.05
	c-0.47-0.09-0.91-0.27-1.31-0.53l0.04,0.75c0.01,0.17,0.01,0.08,0,0.22c-0.02,0.66-0.32,1.25-0.81,1.69
	c-0.53,0.47-1.22,0.72-1.92,0.76c-0.12,0.01-0.23,0.01-0.35,0.01c-0.15,0-0.29-0.02-0.44-0.04c-0.08-0.01-0.17-0.03-0.25-0.05
	c-0.61-0.12-1.18-0.41-1.65-0.81c-0.23-0.2-0.44-0.42-0.61-0.67l-0.18,0.04c-0.01,0.29-0.08,0.57-0.2,0.84
	c-0.24,0.54-0.68,0.96-1.21,1.23c-0.16,0.08-0.33,0.15-0.5,0.2c-0.81,0.25-1.7,0.19-2.48-0.13c-0.76-0.31-1.43-0.85-1.81-1.59
	l-0.02-0.03l-0.54-0.04c-0.3,0.61-0.84,1.05-1.48,1.29c-0.79,0.3-1.68,0.28-2.48,0.02c-0.06-0.02-0.06-0.02-0.08-0.03
	c-0.01,0-0.01,0-0.02-0.01c-0.75-0.27-1.42-0.78-1.82-1.47c-0.17-0.29-0.3-0.62-0.35-0.95l-0.43-0.12
	c-0.15,0.17-0.32,0.33-0.51,0.46c-0.62,0.44-1.39,0.61-2.15,0.56c-0.08-0.01-0.15-0.01-0.23-0.02c-0.84-0.1-1.64-0.48-2.23-1.09
	c-0.54-0.55-0.89-1.29-0.82-2.07l-0.52-0.25c-0.17,0.1-0.34,0.19-0.53,0.26c-0.79,0.3-1.68,0.28-2.48,0.02
	c-0.06-0.02-0.06-0.02-0.08-0.03c-0.01,0-0.01,0-0.02-0.01c-0.75-0.27-1.42-0.78-1.82-1.47c-0.17-0.3-0.3-0.62-0.35-0.95l-0.28-0.09
	l0.31-0.84l-0.64-0.5c-0.11,0.03-0.21,0.05-0.32,0.06c-0.85,0.12-1.72-0.06-2.46-0.49c-0.11-0.07-0.22-0.14-0.33-0.21
	c-0.55-0.41-0.99-0.97-1.17-1.64c-0.17-0.61-0.09-1.27,0.23-1.82c0.08-0.14,0.06-0.11,0.1-0.16l-0.33-0.47
	c-0.2,0.02-0.41,0.02-0.61,0.01c-0.85-0.06-1.67-0.39-2.3-0.97c-0.13-0.12-0.25-0.25-0.36-0.39c-0.38-0.48-0.62-1.06-0.61-1.68
	c0-0.59,0.23-1.15,0.62-1.58c0.16-0.17,0.08-0.11,0.22-0.21l-0.32-0.56c-0.15-0.02-0.3-0.06-0.45-0.1c-0.81-0.22-1.54-0.7-2.02-1.39
	c-0.1-0.14-0.18-0.29-0.25-0.45c-0.24-0.53-0.3-1.12-0.15-1.68c0.16-0.56,0.52-1.03,1-1.36c0.11-0.07,0.22-0.14,0.33-0.2l-0.07-0.59
	c-0.94-0.32-1.76-1-2.11-1.94c-0.51-1.38,0.24-2.7,1.58-3.19c0.19-0.07,0.38-0.12,0.58-0.16l0.05-0.28
	c-0.26-0.14-0.51-0.31-0.74-0.5c-0.35-0.3-0.65-0.66-0.85-1.06h-0.2l-0.06-1.02c-0.01-0.18-0.01-0.08,0-0.23
	c0.02-0.68,0.33-1.3,0.84-1.75c0.55-0.49,1.28-0.75,2.01-0.79c0.12-0.01,0.25-0.01,0.37-0.01c0.07,0,0.14,0.01,0.2,0.01l0.09-0.2
	c-0.24-0.18-0.45-0.38-0.63-0.62c-0.48-0.6-0.72-1.37-0.56-2.13l0.01-0.03c0.16-0.73,0.65-1.3,1.29-1.65
	c0.72-0.39,1.57-0.48,2.37-0.31l0.06,0.01c0.08,0.02,0.16,0.04,0.24,0.06l0.22-0.27c-0.18-0.22-0.33-0.46-0.45-0.72
	c-0.28-0.62-0.3-1.33-0.03-1.96c0.04-0.08,0.01-0.03,0.07-0.13c0.36-0.69,1.03-1.15,1.77-1.35c0.82-0.22,1.71-0.13,2.49,0.21
	c0.05,0.02,0.11,0.05,0.16,0.07l0.32-0.23c-0.11-0.23-0.19-0.48-0.23-0.74c-0.03-0.23-0.04-0.45-0.01-0.68l-0.22-0.16l0.64-0.88
	c0.13-0.18,0.04-0.07,0.21-0.25c0.55-0.59,1.34-0.88,2.14-0.92c0.85-0.04,1.71,0.22,2.41,0.71c0.03,0.02,0.06,0.05,0.09,0.07
	l0.42-0.17c-0.04-0.22-0.04-0.45-0.01-0.68c0.07-0.58,0.35-1.09,0.78-1.48c0.12-0.11,0.25-0.2,0.38-0.28
	c0.7-0.44,1.57-0.57,2.38-0.44c0.83,0.13,1.62,0.53,2.19,1.17c0.02,0.02,0.03,0.04,0.05,0.05l0.49-0.08
	c0.03-0.2,0.08-0.39,0.16-0.57c0.23-0.55,0.65-0.98,1.17-1.26c0.16-0.09,0.32-0.16,0.5-0.21c0.8-0.27,1.69-0.22,2.48,0.07
	c0.44,0.16,0.84,0.41,1.19,0.72l0.78-0.24c-0.03-0.56,0.15-1.11,0.5-1.55c0.4-0.51,0.98-0.84,1.61-0.99
	c0.15-0.04,0.31-0.06,0.47-0.08c0.85-0.09,1.72,0.12,2.45,0.58c0.23,0.15,0.45,0.32,0.64,0.51l0.92-0.22c0-0.07,0-0.03,0.01-0.14
	c0.07-0.68,0.44-1.28,0.99-1.68c0.6-0.45,1.36-0.64,2.1-0.61c0.08,0,0.17,0.01,0.25,0.02c0.65,0.07,1.29,0.3,1.82,0.68l0.62-0.29
	c-0.01-0.14-0.01-0.28,0-0.42c0.07-0.69,0.44-1.3,1-1.7c0.6-0.44,1.35-0.65,2.09-0.6c0.01,0,0.03,0,0.04,0
	c-0.05-0.24-0.03-0.1-0.05-0.36c-0.01-0.26-0.02-0.11,0.01-0.37c0.07-0.69,0.44-1.3,1-1.7c0.6-0.44,1.35-0.65,2.09-0.6
	c0.01,0,0.03,0,0.04,0c-0.05-0.24-0.03-0.1-0.05-0.36c-0.01-0.26-0.02-0.11,0.01-0.37c0.07-0.69,0.44-1.3,1-1.7
	c0.6-0.44,1.35-0.65,2.09-0.6c0.01,0,0.03,0,0.04,0c-0.05-0.24-0.03-0.1-0.05-0.36c-0.01-0.26-0.02-0.11,0.01-0.36
	c0.01-0.06,0.01-0.09,0.02-0.11c0.1-0.7,0.51-1.29,1.1-1.67c0.66-0.44,1.47-0.61,2.25-0.5l0.13,0.02c0.84,0.12,1.64,0.51,2.21,1.14
	c0.52,0.57,0.84,1.31,0.76,2.08c-0.04,0.45-0.22,0.87-0.49,1.21c0.11,0.11,0.2,0.24,0.26,0.39c0.6,1.59,1.45,2.56,3.25,4.63
	l0.27,0.3l-0.81,0.71l0.82-0.71c0.01,0.01,0.02,0.02,0.03,0.03c2.26,2.62,2.76,6.46,2.76,6.47c0.08,0.59-0.34,1.13-0.93,1.21
	c-0.59,0.08-1.13-0.34-1.21-0.93c0-0.01-0.42-3.21-2.26-5.35l-0.02-0.02l0,0l0,0l0,0l-0.26-0.3c-0.24-0.27-0.46-0.52-0.66-0.76
	c0.09,0.23,0.19,0.45,0.29,0.66c2.02,4.13,0.97,7.19,0.97,7.2c-0.19,0.57-0.8,0.88-1.37,0.69c-0.57-0.19-0.88-0.8-0.69-1.37
	c0-0.01,0.77-2.25-0.85-5.58c-0.24-0.48-0.44-1-0.62-1.52c0.01,0.3,0.05,0.62,0.12,0.96c0.64,3.28-0.82,7-0.83,7.01
	c-0.22,0.56-0.84,0.83-1.4,0.61c-0.56-0.22-0.83-0.84-0.61-1.4c0-0.01,1.24-3.15,0.72-5.81c-0.44-2.28,0.07-3.69,0.55-5
	c0.13-0.36,0.26-0.71,0.35-1.06c-0.15,0.01-0.3,0.01-0.44,0C58.21,7.45,58.19,7.45,58.18,7.45L58.18,7.45z M46.86,17.17
	c-0.33-0.15-0.65-0.34-0.92-0.58l-0.36,0.17c0.04,0.19,0.06,0.4,0.06,0.6c0,0.09,0,0.04-0.01,0.15c-0.07,0.65-0.42,1.22-0.95,1.61
	c-0.58,0.43-1.3,0.61-2.01,0.58c-0.08,0-0.16-0.01-0.24-0.02c-0.81-0.08-1.59-0.43-2.17-1.01c-0.01-0.01-0.03-0.03-0.04-0.04
	l-0.89,0.21c-0.02,0.47-0.19,0.91-0.48,1.29c-0.38,0.49-0.94,0.81-1.54,0.95c-0.15,0.04-0.3,0.06-0.45,0.08
	c-0.82,0.08-1.65-0.11-2.35-0.55c-0.17-0.11-0.32-0.22-0.47-0.36l-0.75,0.23c0.01,0.32-0.04,0.65-0.17,0.96
	c-0.22,0.53-0.62,0.94-1.12,1.21c-0.15,0.08-0.31,0.15-0.48,0.21c-0.77,0.26-1.62,0.21-2.38-0.07c-0.54-0.2-1.04-0.54-1.42-0.98
	l-0.47,0.08c-0.07,0.54-0.34,1.03-0.75,1.4c-0.11,0.1-0.24,0.19-0.37,0.27c-0.68,0.42-1.5,0.55-2.28,0.42
	c-0.6-0.1-1.18-0.34-1.66-0.71l-0.4,0.16l0,0.03c0.09,0.58-0.05,1.16-0.39,1.64c-0.14,0.19-0.05,0.09-0.2,0.25
	c-0.53,0.56-1.28,0.85-2.05,0.88c-0.63,0.03-1.26-0.11-1.82-0.39l-0.31,0.22c0.01,0.02,0.02,0.04,0.03,0.07
	c0.26,0.6,0.29,1.27,0.02,1.88c-0.03,0.08-0.01,0.03-0.06,0.13c-0.35,0.67-0.98,1.1-1.7,1.29c-0.61,0.16-1.26,0.15-1.87-0.02
	l-0.22,0.27c0.02,0.02,0.03,0.04,0.05,0.06c0.46,0.58,0.69,1.31,0.54,2.04l-0.01,0.02c-0.15,0.7-0.62,1.25-1.24,1.59
	c-0.55,0.3-1.18,0.41-1.8,0.37l-0.09,0.2c0.07,0.05,0.14,0.11,0.21,0.17c0.33,0.28,0.63,0.63,0.82,1.02h0.19l0.06,0.98
	c0.01,0.17,0.01,0.08,0,0.22c-0.02,0.65-0.32,1.25-0.81,1.68c-0.52,0.46-1.2,0.71-1.89,0.76l-0.02,0.1c0.5,0.21,0.95,0.52,1.29,0.93
	l0.17-0.05l0.33,0.9c0.36,0.98,0.06,1.93-0.64,2.55l0.05,0.17l-0.92,0.34c-0.09,0.03-0.19,0.06-0.29,0.09l0.02,0.17
	c0.14,0.02,0.28,0.05,0.42,0.09c0.77,0.21,1.48,0.67,1.94,1.34c0.09,0.14,0.17,0.28,0.24,0.43c0.23,0.51,0.29,1.07,0.14,1.61
	c-0.05,0.19-0.13,0.36-0.22,0.53l0.12,0.17l-0.01,0.01l0.01,0.01l-0.85,0.58c-0.06,0.04-0.12,0.08-0.18,0.11L11,49.09
	c0.1,0,0.2,0,0.3,0.01c0.81,0.06,1.61,0.38,2.21,0.93c0.12,0.11,0.24,0.24,0.34,0.37c0.36,0.46,0.59,1.02,0.59,1.61
	c0,0.57-0.22,1.1-0.6,1.52l0,0l0.18,0.25c0.06-0.01,0.12-0.02,0.19-0.03c0.81-0.11,1.65,0.06,2.36,0.47
	c0.11,0.06,0.21,0.13,0.31,0.2c0.53,0.39,0.95,0.93,1.12,1.57c0.16,0.58,0.09,1.19-0.2,1.71l0.21,0.16
	c0.08-0.04,0.16-0.08,0.25-0.11c0.76-0.29,1.61-0.27,2.38-0.01c0.05,0.02,0.05,0.02,0.08,0.03c0.01,0,0.01,0,0.02,0.01
	c0.72,0.26,1.36,0.75,1.75,1.41c0.27,0.45,0.4,0.97,0.35,1.49l0.44,0.21c0.59-0.39,1.3-0.54,2-0.49c0.07,0,0.14,0.01,0.22,0.02
	c0.8,0.1,1.58,0.46,2.14,1.04c0.34,0.36,0.61,0.79,0.73,1.26l0.59,0.17c0.27-0.27,0.61-0.48,0.97-0.62
	c0.76-0.29,1.61-0.27,2.38-0.01c0.05,0.02,0.05,0.02,0.08,0.03c0.01,0,0.01,0,0.02,0.01c0.72,0.26,1.36,0.75,1.75,1.41
	c0.03,0.06,0.06,0.11,0.09,0.17l0.53,0.04c0.24-0.48,0.64-0.85,1.12-1.09c0.15-0.08,0.32-0.14,0.48-0.19
	c0.78-0.24,1.63-0.18,2.38,0.12c0.46,0.18,0.88,0.46,1.22,0.81l0.62-0.14c0.12-0.41,0.36-0.77,0.68-1.06
	c0.51-0.45,1.17-0.69,1.85-0.73c0.11-0.01,0.23-0.01,0.34-0.01c0.51,0.02,1,0.14,1.46,0.35l0.32-0.15l-0.03-0.45
	c-0.01-0.17-0.01-0.08,0-0.22c0.02-0.65,0.32-1.25,0.81-1.68c0.53-0.47,1.22-0.72,1.93-0.76c0.12-0.01,0.24-0.01,0.35-0.01
	c0.05,0,0.09,0,0.14,0.01c-0.13-0.16-0.24-0.32-0.33-0.5h-0.2l-0.06-0.98c-0.01-0.16-0.01-0.08,0-0.21c0.02-0.63,0.31-1.2,0.78-1.62
	c0.51-0.45,1.17-0.69,1.85-0.73c0.11-0.01,0.23-0.01,0.34-0.01c0.05,0,0.09,0,0.14,0.01l0.22-0.47c-0.04-0.03-0.09-0.07-0.13-0.1
	c-0.33-0.28-0.63-0.63-0.82-1.02h-0.19l-0.06-0.98c-0.01-0.17-0.01-0.08,0-0.22c0.02-0.65,0.32-1.25,0.81-1.68
	c0.47-0.42,1.07-0.66,1.68-0.74l0.03-0.33c-0.2-0.11-0.39-0.25-0.57-0.4c-0.31-0.26-0.58-0.58-0.76-0.94h-0.2l-0.06-0.98
	c-0.01-0.16-0.01-0.08,0-0.21c0.02-0.63,0.31-1.2,0.78-1.62c0.44-0.39,1-0.62,1.58-0.7l0.1-0.35c-0.02-0.01-0.04-0.02-0.06-0.03
	c-0.68-0.37-1.25-0.95-1.5-1.69c-0.07-0.2-0.05-0.08-0.09-0.35l0-0.03c-0.09-0.56,0.02-1.12,0.32-1.6c0.32-0.5,0.83-0.86,1.39-1.05
	c0.05-0.02,0.09-0.03,0.14-0.04l-0.05-0.25c-0.08-0.02-0.17-0.04-0.25-0.07c-0.76-0.23-1.46-0.7-1.9-1.37
	c-0.09-0.14-0.17-0.28-0.23-0.43c-0.22-0.51-0.26-1.08-0.09-1.61c0.17-0.53,0.53-0.97,0.99-1.28c0.14-0.09,0.29-0.17,0.45-0.24
	l0.03-0.01l-0.07-0.36c-0.62-0.15-1.2-0.45-1.66-0.89c-0.12-0.12-0.24-0.25-0.34-0.38c-0.35-0.46-0.55-1.03-0.54-1.61
	c0.02-0.56,0.25-1.08,0.63-1.49c0.21-0.22,0.07-0.1,0.31-0.28c0.06-0.04,0.11-0.08,0.17-0.12l-0.24-0.62
	c-0.56-0.05-1.11-0.24-1.59-0.53c-0.11-0.07-0.22-0.14-0.32-0.22c-0.51-0.4-0.91-0.94-1.06-1.58c-0.14-0.59-0.06-1.21,0.26-1.73
	c0.1-0.16,0.04-0.08,0.15-0.21c0.07-0.09,0.15-0.18,0.23-0.26l-0.23-0.37c-0.49,0.02-0.98-0.05-1.44-0.22
	c-0.04-0.02-0.09-0.03-0.13-0.05c-0.7-0.28-1.31-0.77-1.68-1.44c-0.33-0.61-0.44-1.32-0.18-1.98l0.02-0.04
	c0.27-0.7,0.87-1.19,1.57-1.43c0.16-0.06,0.32-0.1,0.49-0.13L46.86,17.17L46.86,17.17z"/>
</svg>
